<?xml version="1.0" encoding="UTF-8"?>
<svg version="1.1" xmlns="http://www.w3.org/2000/svg" width="512" height="512">
<path d="M0 0 C5.91431058 2.60925467 10.68025443 7.78950623 13.5703125 13.51464844 C14.73830945 17.14360506 14.74191211 20.53675578 14.6875 24.3046875 C14.68548584 24.96803101 14.68347168 25.63137451 14.68139648 26.31481934 C14.67099574 28.77375279 14.64307342 31.23258705 14.6171875 33.69140625 C14.5759375 39.19828125 14.5346875 44.70515625 14.4921875 50.37890625 C26.0421875 50.37890625 37.5921875 50.37890625 49.4921875 50.37890625 C49.33487055 40.62673268 49.33487055 40.62673268 49.13183594 30.87548828 C49.05229017 21.05158637 49.98530194 12.97744316 56.8046875 5.44140625 C63.52133568 -0.54149045 69.26335628 -1.19541396 78.1171875 -0.9609375 C85.74674304 -0.19268364 89.92903025 3.32191234 94.94921875 8.890625 C100.24180593 17.42575926 99.85987116 26.14930128 99.6796875 35.94140625 C99.6178125 40.70578125 99.5559375 45.47015625 99.4921875 50.37890625 C110.7121875 50.37890625 121.9321875 50.37890625 133.4921875 50.37890625 C133.41353037 41.56932942 133.41353037 41.56932942 133.31201172 32.76000977 C133.27021821 23.43533762 133.30854125 14.8995571 139.4921875 7.37890625 C145.23038309 1.68169777 149.91757357 -0.90130827 158.1796875 -1.05859375 C165.91286723 -0.92093505 171.88765886 0.65422665 177.3671875 6.31640625 C182.09602293 12.31838968 183.80104052 17.43014978 183.6875 25.0859375 C183.68325516 26.17402962 183.68325516 26.17402962 183.67892456 27.28410339 C183.66778549 29.58670993 183.64269316 31.88891852 183.6171875 34.19140625 C183.60714956 35.7584579 183.59802513 37.32551568 183.58984375 38.89257812 C183.5678668 42.72150603 183.53338089 46.55013881 183.4921875 50.37890625 C185.1167688 50.34748535 185.1167688 50.34748535 186.77416992 50.31542969 C190.85378406 50.24215638 194.93334212 50.19679456 199.01342773 50.15917969 C200.76775952 50.13926053 202.52202666 50.11211491 204.27612305 50.07714844 C221.45244219 49.74372289 234.55310769 52.06614877 247.6796875 64.00390625 C259.23384248 76.11155368 259.79724844 91.20266348 259.74615479 107.01599121 C259.74846277 108.58094601 259.75164156 110.14589972 259.75560927 111.71085119 C259.76391947 115.9859879 259.75984925 120.26103474 259.75363684 124.53617167 C259.74909783 129.15655152 259.75610328 133.77691628 259.76159668 138.39729309 C259.77047688 147.43866162 259.76857479 156.4799969 259.7627714 165.52136672 C259.75824951 172.87131817 259.75764429 180.22126032 259.75981903 187.57121277 C259.7601255 188.61840834 259.76043196 189.66560391 259.76074772 190.74453267 C259.76138718 192.87207576 259.76203561 194.99961884 259.7626929 197.12716192 C259.76839217 217.064063 259.76184462 237.00094568 259.75109217 256.93784374 C259.74215702 274.0342553 259.74370918 291.13063971 259.75292969 308.22705078 C259.76363943 328.09397723 259.76784289 347.96088755 259.76170516 367.82781649 C259.76106808 369.9474109 259.76043934 372.06700531 259.75981903 374.18659973 C259.75951048 375.22940482 259.75920193 376.27220992 259.75888403 377.34661517 C259.7571592 384.68536031 259.76006761 392.02409519 259.76477814 399.36283875 C259.77039478 408.30970124 259.76885403 417.25652865 259.75821665 426.20338714 C259.75297051 430.76574628 259.75088516 435.32804698 259.75751495 439.89040565 C259.76349842 444.07130533 259.76015991 448.2520927 259.74955985 452.43298227 C259.74733596 453.94091345 259.74843924 455.44885423 259.75331143 456.95677918 C259.80316549 473.67621348 257.66088689 487.82510232 245.69140625 500.41015625 C235.75617375 509.30421874 225.10078525 511.8355429 212.09475708 511.7665863 C210.86976277 511.77197184 209.64476846 511.77735738 208.38265312 511.78290612 C205.00357967 511.79469128 201.62500269 511.79313638 198.24594951 511.7857393 C194.59348846 511.78099396 190.94107943 511.79352955 187.28863525 511.80375671 C180.14130866 511.82092358 172.99407007 511.8217891 165.84672822 511.81654381 C160.03514776 511.8124968 154.22359324 511.81395197 148.41201401 511.81929207 C147.583801 511.82004049 146.75558799 511.82078891 145.90227761 511.82156001 C144.21957446 511.82309155 142.53687131 511.82462989 140.85416816 511.82617498 C125.08578787 511.83989247 109.31745724 511.8344677 93.54907809 511.82298977 C79.13667808 511.813059 64.72440648 511.82599668 50.31202628 511.84992396 C35.49834232 511.87433138 20.68471813 511.88391874 5.87101448 511.87727123 C-2.4397258 511.87378256 -10.75036735 511.87598778 -19.06109238 511.89352226 C-26.1360699 511.90826484 -33.21087919 511.90885295 -40.28585349 511.89145135 C-43.8923587 511.88295565 -47.49856362 511.88075633 -51.10505295 511.89610291 C-55.02232619 511.91256495 -58.93913922 511.89776458 -62.85641479 511.88011169 C-63.98551895 511.8897167 -65.11462311 511.89932171 -66.27794254 511.90921777 C-78.41747139 511.79696581 -88.80551118 507.69337097 -97.66796875 499.34375 C-109.54042859 486.76116172 -110.81389362 473.3769726 -110.76850891 456.76164246 C-110.77153325 455.18660133 -110.77542415 453.61156168 -110.78010148 452.03652459 C-110.79035382 447.72878934 -110.78820672 443.42113758 -110.78392088 439.11339557 C-110.78144862 434.45955508 -110.79047405 429.80573442 -110.79795837 425.15190125 C-110.81069365 416.0422164 -110.81250051 406.93256104 -110.81015811 397.82286879 C-110.80837343 390.41617852 -110.81012782 383.00949719 -110.81438255 375.602808 C-110.81497774 374.5477283 -110.81557293 373.49264861 -110.81618616 372.4055968 C-110.81739794 370.26203264 -110.81861207 368.11846849 -110.81982853 365.97490434 C-110.83069963 345.88200492 -110.82854366 325.78912229 -110.82244369 305.69622193 C-110.81727534 287.32775066 -110.82852859 268.95933243 -110.84754191 250.59087165 C-110.86692927 231.71589015 -110.8751747 212.84093373 -110.87141865 193.9659422 C-110.86950792 183.37480601 -110.87198169 172.78371496 -110.88613319 162.1925869 C-110.89805942 153.17584461 -110.89943796 144.15917525 -110.88734303 135.14243194 C-110.88146299 130.54537463 -110.88033065 125.94845063 -110.89234543 121.35140228 C-110.90323335 117.13638928 -110.90006648 112.92162043 -110.88608374 108.7066187 C-110.8834448 107.18852689 -110.88577793 105.67041575 -110.89381961 104.15234294 C-110.96121367 90.47144212 -109.51295631 78.77496888 -101.5078125 67.37890625 C-100.6415625 66.04859375 -100.6415625 66.04859375 -99.7578125 64.69140625 C-92.2545983 56.97976943 -81.55225235 50.78810534 -70.59486389 50.2923584 C-68.29825119 50.26344653 -66.00377918 50.26653158 -63.70703125 50.28125 C-62.4524688 50.28337242 -62.4524688 50.28337242 -61.17256165 50.28553772 C-58.5134415 50.29111441 -55.854407 50.3036626 -53.1953125 50.31640625 C-51.38737101 50.32142426 -49.5794282 50.32598664 -47.77148438 50.33007812 C-43.35022766 50.34107621 -38.92903457 50.35832475 -34.5078125 50.37890625 C-34.53399658 49.39607666 -34.56018066 48.41324707 -34.5871582 47.40063477 C-34.67840181 43.71630066 -34.73532686 40.03206405 -34.7824707 36.34692383 C-34.80744778 34.75918728 -34.84144231 33.17156373 -34.88500977 31.58422852 C-35.14924177 21.70195157 -35.2343729 13.44146875 -28.06396484 5.8503418 C-20.06107666 -1.36376875 -10.30157939 -2.55132574 0 0 Z " fill="#FEE3AE" transform="translate(132.5078125,0.62109375)"/>
<path d="M0 0 C3.00022024 0.03438438 5.99749957 0.02060599 8.99780273 0.0012207 C10.92815365 0.00811885 12.85849707 0.01779096 14.78881836 0.03051758 C15.67344254 0.02555771 16.55806671 0.02059784 17.46949768 0.01548767 C25.14813785 0.15889306 30.81082938 2.55016781 37.19116211 6.72192383 C43.85075966 13.68423036 46.02845476 21.65269921 46.12845612 31.08010674 C46.1527188 33.05887269 46.1527188 33.05887269 46.17747164 35.07761371 C46.19051072 36.54050064 46.20341066 38.00338882 46.21618652 39.46627808 C46.23309323 41.02199528 46.25035845 42.57770861 46.26795149 44.1334182 C46.31488462 48.41286238 46.35533422 52.69234648 46.39438581 56.97186899 C46.41986558 59.71037431 46.44714504 62.44885592 46.47501755 65.18733788 C46.84054997 101.16374283 47.05076694 137.14118663 47.21497345 173.11901665 C47.23625452 177.69856842 47.25796039 182.27811797 47.2800293 186.85766602 C47.28549694 187.99568087 47.29096457 189.13369572 47.2965979 190.30619587 C47.38690803 208.59361852 47.5615989 226.87924981 47.76981193 245.16566812 C47.98276321 264.02934575 48.10452017 282.89210667 48.14586782 301.75694668 C48.17142452 312.31218493 48.23521135 322.86392436 48.40351868 333.41793442 C49.16334605 382.55395175 46.29728941 423.48541561 25.65362549 468.55434036 C22.1135776 476.31011615 19.19375468 484.26843612 16.34054947 492.29679751 C15.24641182 495.35168639 14.09947175 498.38557944 12.95288086 501.42114258 C12.43407349 502.79919067 12.43407349 502.79919067 11.90478516 504.20507812 C9.42764514 510.35368231 9.42764514 510.35368231 6.94116211 511.59692383 C0.72676302 512.17233115 0.72676302 512.17233115 -2.06811523 510.12524414 C-4.81278537 506.6393717 -6.06780748 502.98881849 -7.53540039 498.83129883 C-7.86438324 497.92978088 -8.19336609 497.02826294 -8.53231812 496.09942627 C-9.59337091 493.18562471 -10.63926548 490.26666905 -11.68383789 487.34692383 C-12.65037189 484.67126301 -13.62001376 481.99688658 -14.59783268 479.32532787 C-15.340843 477.26547782 -16.06550682 475.19890635 -16.77056789 473.12576008 C-18.93189942 466.9115388 -21.2861376 461.00713769 -24.28177291 455.14455968 C-43.93137654 416.29186191 -41.50094615 375.64026601 -41.01780791 333.23750417 C-40.89858221 322.48074911 -40.88288198 311.72447166 -40.87072697 300.96715217 C-40.84616674 281.78307673 -40.73975874 262.6003955 -40.58154297 243.41699219 C-40.42848704 224.84211276 -40.32271864 206.26783764 -40.27392578 187.69238281 C-40.27089297 186.5421669 -40.26786015 185.39195098 -40.26473544 184.20688004 C-40.25267306 179.58209133 -40.24078562 174.95730222 -40.22916605 170.33251238 C-40.17812042 150.39768419 -40.09298951 130.46297569 -39.99954841 110.5283061 C-39.98458953 107.31321539 -39.97017289 104.09812254 -39.9557879 100.88302922 C-39.90008494 88.70175032 -39.82634606 76.52078124 -39.72744179 64.33977509 C-39.69799374 60.65237824 -39.67525569 56.9650399 -39.65870285 53.2775631 C-39.63935438 49.03210928 -39.60608788 44.78699815 -39.56170561 40.54173427 C-39.54797076 39.00873573 -39.53911475 37.47568383 -39.53570548 35.94262756 C-39.50758063 25.22654088 -39.19350488 15.51758242 -31.16992188 7.52832031 C-22.06446106 -0.80211805 -11.6712708 -0.14827039 0 0 Z " fill="#000002" transform="translate(444.058837890625,0.403076171875)"/>
<path d="M0 0 C5.91431058 2.60925467 10.68025443 7.78950623 13.5703125 13.51464844 C14.73830945 17.14360506 14.74191211 20.53675578 14.6875 24.3046875 C14.68548584 24.96803101 14.68347168 25.63137451 14.68139648 26.31481934 C14.67099574 28.77375279 14.64307342 31.23258705 14.6171875 33.69140625 C14.5759375 39.19828125 14.5346875 44.70515625 14.4921875 50.37890625 C26.0421875 50.37890625 37.5921875 50.37890625 49.4921875 50.37890625 C49.33487055 40.62673268 49.33487055 40.62673268 49.13183594 30.87548828 C49.05229017 21.05158637 49.98530194 12.97744316 56.8046875 5.44140625 C63.52133568 -0.54149045 69.26335628 -1.19541396 78.1171875 -0.9609375 C85.74674304 -0.19268364 89.92903025 3.32191234 94.94921875 8.890625 C100.24180593 17.42575926 99.85987116 26.14930128 99.6796875 35.94140625 C99.6178125 40.70578125 99.5559375 45.47015625 99.4921875 50.37890625 C110.7121875 50.37890625 121.9321875 50.37890625 133.4921875 50.37890625 C133.41353037 41.56932942 133.41353037 41.56932942 133.31201172 32.76000977 C133.27021821 23.43533762 133.30854125 14.8995571 139.4921875 7.37890625 C145.23038309 1.68169777 149.91757357 -0.90130827 158.1796875 -1.05859375 C165.91286723 -0.92093505 171.88765886 0.65422665 177.3671875 6.31640625 C182.09602293 12.31838968 183.80104052 17.43014978 183.6875 25.0859375 C183.68325516 26.17402962 183.68325516 26.17402962 183.67892456 27.28410339 C183.66778549 29.58670993 183.64269316 31.88891852 183.6171875 34.19140625 C183.60714956 35.7584579 183.59802513 37.32551568 183.58984375 38.89257812 C183.5678668 42.72150603 183.53338089 46.55013881 183.4921875 50.37890625 C185.1167688 50.34748535 185.1167688 50.34748535 186.77416992 50.31542969 C190.85378406 50.24215638 194.93334212 50.19679456 199.01342773 50.15917969 C200.76775952 50.13926053 202.52202666 50.11211491 204.27612305 50.07714844 C221.45244219 49.74372289 234.55310769 52.06614877 247.6796875 64.00390625 C259.23384248 76.11155368 259.79724844 91.20266348 259.74615479 107.01599121 C259.74846277 108.58094601 259.75164156 110.14589972 259.75560927 111.71085119 C259.76391947 115.9859879 259.75984925 120.26103474 259.75363684 124.53617167 C259.74909783 129.15655152 259.75610328 133.77691628 259.76159668 138.39729309 C259.77047688 147.43866162 259.76857479 156.4799969 259.7627714 165.52136672 C259.75824951 172.87131817 259.75764429 180.22126032 259.75981903 187.57121277 C259.7601255 188.61840834 259.76043196 189.66560391 259.76074772 190.74453267 C259.76138718 192.87207576 259.76203561 194.99961884 259.7626929 197.12716192 C259.76839217 217.064063 259.76184462 237.00094568 259.75109217 256.93784374 C259.74215702 274.0342553 259.74370918 291.13063971 259.75292969 308.22705078 C259.76363943 328.09397723 259.76784289 347.96088755 259.76170516 367.82781649 C259.76106808 369.9474109 259.76043934 372.06700531 259.75981903 374.18659973 C259.75951048 375.22940482 259.75920193 376.27220992 259.75888403 377.34661517 C259.7571592 384.68536031 259.76006761 392.02409519 259.76477814 399.36283875 C259.77039478 408.30970124 259.76885403 417.25652865 259.75821665 426.20338714 C259.75297051 430.76574628 259.75088516 435.32804698 259.75751495 439.89040565 C259.76349842 444.07130533 259.76015991 448.2520927 259.74955985 452.43298227 C259.74733596 453.94091345 259.74843924 455.44885423 259.75331143 456.95677918 C259.80316549 473.67621348 257.66088689 487.82510232 245.69140625 500.41015625 C235.75617375 509.30421874 225.10078525 511.8355429 212.09475708 511.7665863 C210.86976277 511.77197184 209.64476846 511.77735738 208.38265312 511.78290612 C205.00357967 511.79469128 201.62500269 511.79313638 198.24594951 511.7857393 C194.59348846 511.78099396 190.94107943 511.79352955 187.28863525 511.80375671 C180.14130866 511.82092358 172.99407007 511.8217891 165.84672822 511.81654381 C160.03514776 511.8124968 154.22359324 511.81395197 148.41201401 511.81929207 C147.583801 511.82004049 146.75558799 511.82078891 145.90227761 511.82156001 C144.21957446 511.82309155 142.53687131 511.82462989 140.85416816 511.82617498 C125.08578787 511.83989247 109.31745724 511.8344677 93.54907809 511.82298977 C79.13667808 511.813059 64.72440648 511.82599668 50.31202628 511.84992396 C35.49834232 511.87433138 20.68471813 511.88391874 5.87101448 511.87727123 C-2.4397258 511.87378256 -10.75036735 511.87598778 -19.06109238 511.89352226 C-26.1360699 511.90826484 -33.21087919 511.90885295 -40.28585349 511.89145135 C-43.8923587 511.88295565 -47.49856362 511.88075633 -51.10505295 511.89610291 C-55.02232619 511.91256495 -58.93913922 511.89776458 -62.85641479 511.88011169 C-63.98551895 511.8897167 -65.11462311 511.89932171 -66.27794254 511.90921777 C-78.41747139 511.79696581 -88.80551118 507.69337097 -97.66796875 499.34375 C-109.54042859 486.76116172 -110.81389362 473.3769726 -110.76850891 456.76164246 C-110.77153325 455.18660133 -110.77542415 453.61156168 -110.78010148 452.03652459 C-110.79035382 447.72878934 -110.78820672 443.42113758 -110.78392088 439.11339557 C-110.78144862 434.45955508 -110.79047405 429.80573442 -110.79795837 425.15190125 C-110.81069365 416.0422164 -110.81250051 406.93256104 -110.81015811 397.82286879 C-110.80837343 390.41617852 -110.81012782 383.00949719 -110.81438255 375.602808 C-110.81497774 374.5477283 -110.81557293 373.49264861 -110.81618616 372.4055968 C-110.81739794 370.26203264 -110.81861207 368.11846849 -110.81982853 365.97490434 C-110.83069963 345.88200492 -110.82854366 325.78912229 -110.82244369 305.69622193 C-110.81727534 287.32775066 -110.82852859 268.95933243 -110.84754191 250.59087165 C-110.86692927 231.71589015 -110.8751747 212.84093373 -110.87141865 193.9659422 C-110.86950792 183.37480601 -110.87198169 172.78371496 -110.88613319 162.1925869 C-110.89805942 153.17584461 -110.89943796 144.15917525 -110.88734303 135.14243194 C-110.88146299 130.54537463 -110.88033065 125.94845063 -110.89234543 121.35140228 C-110.90323335 117.13638928 -110.90006648 112.92162043 -110.88608374 108.7066187 C-110.8834448 107.18852689 -110.88577793 105.67041575 -110.89381961 104.15234294 C-110.96121367 90.47144212 -109.51295631 78.77496888 -101.5078125 67.37890625 C-100.6415625 66.04859375 -100.6415625 66.04859375 -99.7578125 64.69140625 C-92.2545983 56.97976943 -81.55225235 50.78810534 -70.59486389 50.2923584 C-68.29825119 50.26344653 -66.00377918 50.26653158 -63.70703125 50.28125 C-62.4524688 50.28337242 -62.4524688 50.28337242 -61.17256165 50.28553772 C-58.5134415 50.29111441 -55.854407 50.3036626 -53.1953125 50.31640625 C-51.38737101 50.32142426 -49.5794282 50.32598664 -47.77148438 50.33007812 C-43.35022766 50.34107621 -38.92903457 50.35832475 -34.5078125 50.37890625 C-34.53399658 49.39607666 -34.56018066 48.41324707 -34.5871582 47.40063477 C-34.67840181 43.71630066 -34.73532686 40.03206405 -34.7824707 36.34692383 C-34.80744778 34.75918728 -34.84144231 33.17156373 -34.88500977 31.58422852 C-35.14924177 21.70195157 -35.2343729 13.44146875 -28.06396484 5.8503418 C-20.06107666 -1.36376875 -10.30157939 -2.55132574 0 0 Z M-89.5078125 75.37890625 C-94.64739186 82.02243377 -96.75478813 88.75234089 -96.76508141 97.19376087 C-96.76858748 97.84548894 -96.77209355 98.497217 -96.77570587 99.16869441 C-96.78497986 101.34373527 -96.78010705 103.51850603 -96.77523804 105.69355774 C-96.77897631 107.27227295 -96.78357855 108.85098631 -96.78896868 110.42969674 C-96.80119205 114.76139921 -96.800939 119.09302441 -96.79857993 123.4247402 C-96.7981716 128.09902915 -96.80921243 132.77329338 -96.81869507 137.4475708 C-96.83530216 146.60277842 -96.84080447 155.75796028 -96.84191982 164.9131817 C-96.84287039 172.35524831 -96.8469811 179.79730642 -96.85332108 187.23937035 C-96.87093231 208.34163437 -96.88016007 229.44387805 -96.87866013 250.54614947 C-96.87858022 251.68358372 -96.8785003 252.82101797 -96.87841797 253.99291992 C-96.87833621 255.13174376 -96.87825445 256.27056761 -96.87817021 257.44390126 C-96.87735723 275.90190194 -96.89649816 294.35982104 -96.9246947 312.81779812 C-96.95342207 331.77290184 -96.96723509 350.72796577 -96.96550715 369.68309182 C-96.96484322 380.32393762 -96.97033683 390.96469787 -96.99186325 401.60552406 C-97.01007303 410.66489232 -97.01442398 419.72413626 -97.0008444 428.78351489 C-96.9943139 433.4045225 -96.99420059 438.02529156 -97.0115509 442.64627647 C-97.02728285 446.87981729 -97.02441684 451.11293045 -97.00698264 455.34646084 C-97.00391302 456.87468512 -97.00754373 458.40294132 -97.01870279 459.93112794 C-97.09661673 471.36179677 -95.82324944 480.98707873 -87.661816 489.57030642 C-79.60890926 496.33189514 -71.19198953 498.26415118 -60.93270874 498.12734985 C-59.72486335 498.13529867 -58.51701797 498.14324748 -57.27257121 498.15143716 C-53.95476637 498.16724102 -50.63906341 498.15648905 -47.32143354 498.13393617 C-43.73037274 498.11612735 -40.13944556 498.13317464 -36.54838562 498.1456604 C-29.52801524 498.1645675 -22.5080581 498.15149853 -15.48771857 498.12713452 C-7.30331559 498.09979593 0.88099067 498.1031788 9.06542771 498.10740118 C23.6722837 498.11377068 38.27894417 498.09050339 52.88574219 498.05126953 C67.04368033 498.01325158 81.20138946 497.99909933 95.359375 498.01025391 C110.79782787 498.02238144 126.23618024 498.02199459 141.6746248 497.99928224 C143.3220783 497.99686779 144.96953181 497.99445582 146.61698532 497.99204636 C147.83268365 497.99023574 147.83268365 497.99023574 149.07294155 497.98838855 C154.77159692 497.98064512 160.47021475 497.98141163 166.16887283 497.98521805 C173.11647416 497.98947107 180.06387543 497.97894485 187.0114205 497.94999094 C190.5529975 497.93554767 194.09428381 497.92731022 197.63588524 497.93647766 C201.48113439 497.94618872 205.32585936 497.92471951 209.17105103 497.90029907 C210.28156692 497.90785772 211.39208282 497.91541637 212.53625071 497.92320406 C221.83930796 497.81887445 230.01053187 495.61008985 236.95703125 489.15625 C242.54655502 482.68491841 244.61247433 476.26475457 244.62920189 467.85510826 C244.63185372 467.19839986 244.63450554 466.54169146 244.63723773 465.8650828 C244.64492333 463.65510714 244.64548962 461.44518711 244.64608765 459.23519897 C244.65010275 457.63845005 244.65454106 456.04170215 244.6593672 454.44495547 C244.6713331 450.04948909 244.67698119 445.65403369 244.68154836 441.25855422 C244.68750434 436.52082203 244.69911415 431.78310297 244.70983887 427.04537964 C244.7343622 415.60011166 244.74898953 404.15483934 244.76189893 392.70955318 C244.76561079 389.47721751 244.76958402 386.24488226 244.7736516 383.01254702 C244.79888704 362.94228512 244.8209412 342.87202254 244.83337975 322.80174828 C244.83630946 318.15282565 244.83927112 313.50390304 244.84228516 308.85498047 C244.84340423 307.12177034 244.84340423 307.12177034 244.84454592 305.35354586 C244.85720093 286.63344875 244.89042614 267.91344659 244.93208699 249.19339387 C244.97450379 229.97622743 244.99807445 210.7591096 245.00330031 191.54189646 C245.00671461 180.75118743 245.01847217 169.96062681 245.05140305 159.16996384 C245.07940111 149.98059214 245.09040389 140.79139928 245.07920758 131.60198824 C245.07402044 126.9141118 245.07691147 122.22660989 245.10167313 117.53878784 C245.12416921 113.24399866 245.12342314 108.94985298 245.10446925 104.6550525 C245.10166975 103.1045245 245.10726512 101.55395283 245.12228219 100.00349502 C245.21592996 89.70167232 243.9972247 82.00595272 237.421875 73.79296875 C236.74382812 73.20257813 236.06578125 72.6121875 235.3671875 72.00390625 C234.70460938 71.39804688 234.04203125 70.7921875 233.359375 70.16796875 C222.88920664 63.63481193 212.71335251 63.88005095 200.8046875 64.12890625 C199.12046407 64.14901251 197.43621733 64.16725595 195.75195312 64.18359375 C191.66477892 64.22723902 187.57874679 64.29603398 183.4921875 64.37890625 C183.47236816 65.24580078 183.45254883 66.11269531 183.43212891 67.00585938 C183.35351443 70.25641593 183.2668058 73.50663282 183.17480469 76.75683594 C183.13678437 78.1571436 183.10188716 79.55753999 183.0703125 80.95800781 C182.58099344 102.39629907 182.58099344 102.39629907 174.4921875 110.37890625 C167.92900098 114.68405885 161.29132081 116.34829005 153.4921875 115.37890625 C145.45232286 112.6834603 140.69570064 108.78050516 136.90625 101.2109375 C134.44962855 94.45929578 134.91512705 86.9670527 134.8046875 79.87890625 C134.7015625 74.76390625 134.5984375 69.64890625 134.4921875 64.37890625 C122.6121875 64.37890625 110.7321875 64.37890625 98.4921875 64.37890625 C98.32205855 75.20774884 98.32205855 75.20774884 98.19433594 86.03710938 C98.03871987 94.9465965 97.57564477 101.54611353 91.59765625 108.62109375 C85.54179584 113.77659202 79.90614913 115.95344978 71.89453125 115.76171875 C65.21793436 114.69780575 58.47270789 110.8068886 54.4921875 105.37890625 C50.81500316 97.01745867 50.95076879 88.21639524 50.8046875 79.25390625 C50.7015625 74.34515625 50.5984375 69.43640625 50.4921875 64.37890625 C38.6121875 64.37890625 26.7321875 64.37890625 14.4921875 64.37890625 C14.28281609 74.1753733 14.28281609 74.1753733 14.10424805 83.97241211 C13.62883473 101.72233278 13.62883473 101.72233278 7.6171875 108.25390625 C7.14539063 108.78757813 6.67359375 109.32125 6.1875 109.87109375 C0.26533513 115.13827264 -5.81627966 115.52489027 -13.5078125 115.37890625 C-19.63285497 114.36260291 -24.18954213 111.8980264 -28.5078125 107.37890625 C-32.79226225 100.73251626 -33.58177153 94.27680028 -33.82421875 86.44921875 C-33.86611328 85.16015625 -33.90800781 83.87109375 -33.95117188 82.54296875 C-33.99097278 81.19661716 -34.03068523 79.85026296 -34.0703125 78.50390625 C-34.11356433 77.13410292 -34.15718062 75.76431104 -34.20117188 74.39453125 C-34.30696772 71.05608468 -34.40905622 67.71756725 -34.5078125 64.37890625 C-39.59401894 64.27919175 -44.67964242 64.20704344 -49.76660156 64.15917969 C-51.49293952 64.1392034 -53.21921103 64.11201253 -54.9453125 64.07714844 C-68.80597806 63.80442701 -79.62387772 64.54840311 -89.5078125 75.37890625 Z " fill="#080604" transform="translate(132.5078125,0.62109375)"/>
<path d="M0 0 C18.81 0 37.62 0 57 0 C57.02202591 36.79987076 57.04049756 73.59973533 57.05106533 110.39961078 C57.05231611 114.73947035 57.05361042 119.07932991 57.05493164 123.41918945 C57.05519395 124.28321481 57.05545626 125.14724017 57.05572652 126.03744812 C57.06008349 140.04650429 57.06797118 154.05555637 57.0771528 168.06461012 C57.0864886 182.42820231 57.09205545 196.79179236 57.09408849 211.15538746 C57.09546388 220.02581865 57.09981528 228.8962383 57.10791647 237.76666594 C57.11318302 243.84096802 57.1148045 249.91526409 57.11350138 255.98956829 C57.11285785 259.49948694 57.1138771 263.00938536 57.11920547 266.51930046 C57.12492687 270.31560391 57.12300105 274.11188056 57.12025452 277.90818787 C57.12316736 279.02975908 57.1260802 280.1513303 57.12908131 281.30688852 C57.12709026 282.31558089 57.12509921 283.32427326 57.12304783 284.36353207 C57.12361741 285.67983259 57.12361741 285.67983259 57.1241985 287.02272505 C57 289 57 289 56 290 C37.52 290 19.04 290 0 290 C0 194.3 0 98.6 0 0 Z " fill="#FAA420" transform="translate(419,114)"/>
<path d="M0 0 C1.2367749 -0.00430527 1.2367749 -0.00430527 2.49853516 -0.00869751 C4.23666066 -0.01073322 5.97480933 -0.0052379 7.71289062 0.00732422 C10.36640879 0.0233855 13.01840395 0.00745941 15.671875 -0.01171875 C17.36458668 -0.00973623 19.05729742 -0.00589237 20.75 0 C21.93456787 -0.00910904 21.93456787 -0.00910904 23.14306641 -0.0184021 C27.74268152 0.0400391 30.71567385 0.55786857 34.375 3.3984375 C38.92037201 8.44885085 39.49989493 11.83532443 39.48852539 18.53198242 C39.48867142 19.25418472 39.48881744 19.97638702 39.4889679 20.72047424 C39.48827145 23.10664884 39.4804916 25.49274529 39.47265625 27.87890625 C39.47079112 29.5337164 39.46936766 31.18852711 39.46836853 32.84333801 C39.46455085 37.19824753 39.45472695 41.55312368 39.44366455 45.90802002 C39.43163558 51.13347433 39.42704462 56.3589398 39.42121124 61.58440399 C39.41151481 69.52243836 39.39235301 77.46039953 39.375 85.3984375 C20.565 85.3984375 1.755 85.3984375 -17.625 85.3984375 C-17.78543524 66.96175481 -17.78543524 66.96175481 -17.8203125 59.08007812 C-17.84418912 53.70988075 -17.87238192 48.33995716 -17.92675781 42.9699707 C-17.97033951 38.63869292 -17.99416309 34.3077089 -18.00450897 29.97622871 C-18.0118783 28.32685283 -18.02626898 26.67749234 -18.04792023 25.02824211 C-18.07711925 22.71110645 -18.0809493 20.395172 -18.07910156 18.07788086 C-18.09242523 16.10264687 -18.09242523 16.10264687 -18.10601807 14.08750916 C-17.42085229 8.83276757 -15.49780115 5.0185263 -11.4140625 1.48583984 C-7.61091019 0.0030632 -4.02194271 -0.03092776 0 0 Z " fill="#FC3030" transform="translate(436.625,14.6015625)"/>
<path d="M0 0 C0.9724809 -0.00694553 1.9449618 -0.01389106 2.94691181 -0.02104706 C6.21443241 -0.0393833 9.48123239 -0.02903412 12.7487793 -0.01878357 C15.08768255 -0.02583863 17.42658124 -0.03458189 19.76547241 -0.04489136 C26.12487992 -0.06744012 32.4840392 -0.06443289 38.84347153 -0.05556989 C44.81738767 -0.04982444 50.79127483 -0.05949385 56.76518357 -0.06785773 C69.3181398 -0.08444022 81.87098366 -0.07571303 94.42393315 -0.05887216 C105.91209248 -0.04417271 117.39999034 -0.05880607 128.888116 -0.08764232 C140.68109994 -0.11702364 152.47396314 -0.12801246 164.26698208 -0.11846012 C170.88911997 -0.113382 177.51109283 -0.11579817 184.13320923 -0.13624763 C190.35820993 -0.15454973 196.58272309 -0.14871266 202.8076973 -0.12404823 C205.0958494 -0.11902323 207.3840383 -0.12257353 209.6721611 -0.13519669 C212.78900665 -0.15103505 215.9042285 -0.13626266 219.02099609 -0.11352539 C219.93266194 -0.12536112 220.84432779 -0.13719685 221.78361988 -0.14939123 C227.87715636 -0.0586902 227.87715636 -0.0586902 231.09968567 2.85861301 C232.51049805 5.5146637 232.51049805 5.5146637 232.57299805 8.6396637 C231.51049805 11.5146637 231.51049805 11.5146637 229.53716278 13.16970062 C225.31281072 15.04688162 221.59607229 14.9362636 217.0213623 14.90907288 C216.0609832 14.91516398 215.1006041 14.92125508 214.11112261 14.92753077 C210.89061219 14.94418997 207.67049588 14.93938073 204.44995117 14.93458557 C202.14208057 14.9419241 199.83421364 14.9505097 197.52635193 14.96025085 C191.25581869 14.98249602 184.98541675 14.98539609 178.71484947 14.98350334 C173.48344199 14.9833838 168.25206249 14.99194106 163.02066278 15.00028086 C149.97641646 15.02062573 136.93224605 15.021661 123.88798934 15.01447374 C112.55900449 15.00889623 101.23024563 15.02973327 89.9013136 15.0628342 C78.26763062 15.09656175 66.6340659 15.11126606 55.00033331 15.10711718 C48.46925491 15.10504619 41.93840166 15.11058329 35.40736389 15.13500977 C29.26772221 15.15721354 23.12855229 15.1554518 16.98890877 15.13508224 C14.73342081 15.13166115 12.47790147 15.13680826 10.22245598 15.15106583 C7.14762637 15.16916464 4.07441326 15.15657831 0.99963379 15.13612366 C-0.34496328 15.15490043 -0.34496328 15.15490043 -1.71672392 15.17405653 C-6.15283582 15.1106141 -7.9359273 14.94527731 -11.54741669 12.1359787 C-13.48950195 9.5146637 -13.48950195 9.5146637 -14.05200195 6.9521637 C-12.32472854 -0.53268774 -6.36826773 -0.05756431 0 0 Z " fill="#080707" transform="translate(97.489501953125,300.48533630371094)"/>
<path d="M0 0 C0.8325545 -0.00905664 1.66510899 -0.01811328 2.52289242 -0.02744436 C3.89476045 -0.01945247 3.89476045 -0.01945247 5.29434299 -0.01129913 C6.26596947 -0.01739024 7.23759594 -0.02348134 8.23866564 -0.02975702 C11.50917818 -0.04646629 14.77930475 -0.04159989 18.04985142 -0.03681183 C20.38860576 -0.04414753 22.72735648 -0.05273229 25.06610203 -0.06247711 C31.42965825 -0.08475384 37.79308523 -0.08762072 44.1566751 -0.0857296 C48.79452247 -0.08562522 53.43234286 -0.09205777 58.07018359 -0.09935716 C58.73161561 -0.10039664 59.39304762 -0.10143613 60.07452303 -0.10250711 C60.73832331 -0.10355064 61.40212358 -0.10459417 62.08603901 -0.10566932 C74.64564431 -0.12457962 87.20519121 -0.12351905 99.76480485 -0.11669999 C111.25948753 -0.11112364 122.7539474 -0.13195231 134.248578 -0.16506046 C146.04604099 -0.19877763 157.84339717 -0.2139683 169.64090925 -0.20934343 C176.26642551 -0.20709676 182.89176119 -0.21282738 189.51724148 -0.23723602 C195.74631594 -0.25942492 201.97492524 -0.25769057 208.20400143 -0.2373085 C210.49377138 -0.23388457 212.78357217 -0.23904654 215.07330036 -0.25329208 C218.1923713 -0.27136249 221.30984363 -0.25882581 224.42886448 -0.23834991 C225.79738643 -0.25712669 225.79738643 -0.25712669 227.1935553 -0.27628279 C233.29074451 -0.19009668 233.29074451 -0.19009668 236.51861 2.72663879 C237.92509556 5.38311005 237.92509556 5.38311005 237.92509556 8.50811005 C236.71762576 11.97958572 236.15067179 12.66527005 232.92509556 14.38311005 C229.79131826 14.83365927 226.67971407 14.79616848 223.51825047 14.77751923 C222.55464224 14.78361033 221.59103401 14.78970143 220.59822553 14.79597712 C217.36079053 14.81266134 214.1237465 14.80782352 210.8862772 14.80303192 C208.56870202 14.81036906 206.2511305 14.81895425 203.93356419 14.8286972 C197.63198118 14.85095851 191.33052876 14.85384159 185.02891183 14.85194969 C179.77270129 14.85183021 174.51651864 14.86038515 169.26031584 14.86872721 C156.15352352 14.88907909 143.04680675 14.89010524 129.9400041 14.88292009 C118.55599061 14.87734385 107.17220212 14.89817302 95.78824122 14.93128055 C84.1003494 14.96500831 72.4125753 14.97971229 60.72463411 14.97556353 C54.16224211 14.97349236 47.60007417 14.97903218 41.03772259 15.00345612 C34.86772622 15.0256603 28.6981993 15.02389779 22.5282011 15.00352859 C20.26142611 15.00010742 17.99461989 15.00525493 15.72788715 15.01951218 C12.63768005 15.03761043 9.5490815 15.02502495 6.45892429 15.00457001 C5.10746763 15.02334678 5.10746763 15.02334678 3.7287088 15.04250288 C-0.70308338 14.97943548 -2.53038525 14.79530395 -6.17076874 12.0395813 C-8.07490444 9.38311005 -8.07490444 9.38311005 -8.07490444 6.25811005 C-6.52082079 1.79011954 -4.78216338 0.0104404 0 0 Z " fill="#060506" transform="translate(92.0749044418335,428.6168899536133)"/>
<path d="M0 0 C0.8331712 -0.00583219 1.66634239 -0.01166439 2.5247612 -0.01767331 C3.89765242 -0.01200433 3.89765242 -0.01200433 5.29827881 -0.00622082 C6.75677687 -0.01195914 6.75677687 -0.01195914 8.24473953 -0.01781338 C11.51752305 -0.0281693 14.79013198 -0.02414632 18.06292725 -0.02018261 C20.40330163 -0.02452761 22.74367458 -0.02971005 25.08404541 -0.03567028 C31.45165067 -0.04909338 37.8191967 -0.04963534 44.18681335 -0.04710698 C50.16613159 -0.04590478 56.14544143 -0.05210879 62.12475634 -0.05754044 C74.68909201 -0.06842181 87.25340086 -0.06625053 99.81773806 -0.06015559 C111.319505 -0.0549846 122.82118729 -0.06624559 134.32293749 -0.08525381 C146.12603451 -0.10461093 157.92909143 -0.11289204 169.73220444 -0.10913056 C176.36155377 -0.10721544 182.99084004 -0.10999922 189.62017822 -0.1238451 C195.85161504 -0.13637233 202.08288175 -0.1345279 208.3143158 -0.12143421 C210.60611528 -0.11905782 212.89792654 -0.12184083 215.18971252 -0.13005733 C218.30878417 -0.14043668 221.42727563 -0.13249532 224.54632568 -0.11974621 C225.46158649 -0.12712049 226.37684731 -0.13449478 227.31984329 -0.14209253 C228.15301449 -0.13488598 228.98618568 -0.12767944 229.84460449 -0.12025452 C230.56482662 -0.12030953 231.28504875 -0.12036455 232.02709579 -0.12042123 C234.50975397 0.37068129 235.37816195 1.28226579 236.92230225 3.25447559 C237.86665557 6.4248046 238.31035381 8.32478938 237.02085876 11.41413593 C233.59481789 14.41861966 229.87599381 13.80499826 225.47039795 13.76241016 C223.99964923 13.77177011 223.99964923 13.77177011 222.49918842 13.78131914 C219.19857881 13.79733252 215.89869918 13.78461204 212.5980835 13.77205372 C210.23800219 13.77747111 207.87792426 13.78459161 205.51785278 13.79329395 C199.09646232 13.81157558 192.67532807 13.80443969 186.25393295 13.79177761 C182.2462186 13.78467805 178.23852192 13.7860032 174.23080444 13.78973866 C173.56599038 13.79035159 172.90117633 13.79096452 172.21621639 13.79159603 C170.86575816 13.7928749 169.51529996 13.79417175 168.16484177 13.79548639 C155.49459941 13.80689898 142.82447271 13.79376789 130.15424931 13.77228492 C119.277071 13.75441328 108.40006342 13.7575172 97.52288818 13.77595997 C84.89871883 13.79735475 72.27465091 13.80580029 59.65046597 13.79351091 C58.30491068 13.79223669 56.95935537 13.7909792 55.61380005 13.78973866 C54.95172068 13.78912155 54.28964132 13.78850445 53.60749894 13.78786865 C48.93656793 13.78441154 44.26573646 13.79044648 39.59481812 13.79965687 C33.31078973 13.81118176 27.02708489 13.80325095 20.74309158 13.78007984 C18.43194746 13.77477478 16.12077627 13.776337 13.80964279 13.7851305 C10.66412535 13.79599843 7.51965646 13.78242802 4.37420654 13.76241016 C3.45116384 13.77133305 2.52812113 13.78025594 1.57710743 13.78944921 C-4.54413324 13.71344909 -4.54413324 13.71344909 -7.17625427 11.44929218 C-8.55070829 8.10279899 -7.96960698 5.69469688 -7.07769775 2.25447559 C-4.02207884 0.21739632 -3.43294945 0.00413151 0 0 Z " fill="#000002" transform="translate(92.07769775390625,364.7455244064331)"/>
<path d="M0 0 C0.8325545 -0.00644889 1.66510899 -0.01289778 2.52289242 -0.0195421 C3.89476045 -0.01489629 3.89476045 -0.01489629 5.29434299 -0.01015663 C6.26596947 -0.01468774 7.23759594 -0.01921886 8.23866564 -0.02388728 C11.50910863 -0.03659321 14.77938641 -0.03490692 18.04985142 -0.03325844 C20.38860381 -0.03923977 22.72735423 -0.0460444 25.06610203 -0.05361366 C31.42963688 -0.07131988 37.793118 -0.07597096 44.1566751 -0.07724524 C48.7945167 -0.0789025 53.43234624 -0.08469725 58.07018359 -0.09091819 C70.5369033 -0.10753291 83.00359443 -0.11500204 95.47032481 -0.11357872 C96.17848265 -0.11349881 96.88664049 -0.1134189 97.61625767 -0.11333656 C98.67978852 -0.11321392 98.67978852 -0.11321392 99.76480485 -0.1130888 C111.25945218 -0.11227563 122.75396856 -0.13142032 134.248578 -0.1596133 C146.04603112 -0.18832121 157.84342031 -0.20215478 169.64090925 -0.20042574 C176.26640289 -0.19976116 182.89177576 -0.20567057 189.51724148 -0.22678185 C195.74625503 -0.24608727 201.97497787 -0.24634146 208.20400143 -0.23174858 C210.49377203 -0.22964988 212.78356048 -0.234424 215.07330036 -0.2464695 C218.19216798 -0.26181765 221.31002003 -0.25268273 224.42886448 -0.23720741 C225.34121245 -0.24749454 226.25356042 -0.25778167 227.1935553 -0.26838052 C233.26465126 -0.20151991 233.26465126 -0.20151991 236.52251625 2.06161118 C237.92509556 4.25726891 237.92509556 4.25726891 237.86259556 7.88226891 C236.92509556 11.25726891 236.92509556 11.25726891 233.92509556 13.25726891 C232.03103977 13.51026857 232.03103977 13.51026857 229.85019112 13.51453781 C229.01763662 13.5209867 228.18508212 13.5274356 227.3272987 13.53407991 C225.95543066 13.5294341 225.95543066 13.5294341 224.55584812 13.52469444 C223.58422165 13.52922556 222.61259518 13.53375667 221.61152548 13.53842509 C218.34108249 13.55113102 215.07080471 13.54944474 211.8003397 13.54779625 C209.4615873 13.55377758 207.12283689 13.56058221 204.78408909 13.56815147 C198.42055423 13.58585769 192.05707312 13.59050877 185.69351602 13.59178305 C181.05567442 13.59344031 176.41784488 13.59923506 171.78000752 13.605456 C159.31328781 13.62207072 146.84659669 13.62953985 134.37986631 13.62811653 C133.67170847 13.62803662 132.96355062 13.62795671 132.23393345 13.62787437 C131.17040259 13.62775173 131.17040259 13.62775173 130.08538627 13.62762661 C118.59073894 13.62681344 107.09622256 13.64595813 95.60161311 13.67415111 C83.80416 13.70285902 72.0067708 13.71669259 60.20928186 13.71496356 C53.58378823 13.71429897 46.95841535 13.72020839 40.33294964 13.74131966 C34.10393608 13.76062508 27.87521325 13.76087927 21.64618969 13.74628639 C19.35641908 13.74418769 17.06663064 13.74896182 14.77689075 13.76100731 C11.65802314 13.77635546 8.54017109 13.76722054 5.42132664 13.75174522 C4.50897867 13.76203235 3.5966307 13.77231948 2.65663582 13.78291833 C-3.41446015 13.71605772 -3.41446015 13.71605772 -6.67232513 11.45292664 C-8.07490444 9.25726891 -8.07490444 9.25726891 -8.01240444 5.63226891 C-6.69637281 0.89455502 -4.61700086 0.00903827 0 0 Z " fill="#000002" transform="translate(92.0749044418335,236.74273109436035)"/>
<path d="M0 0 C0.98049914 -0.00623996 1.96099829 -0.01247993 2.97120953 -0.01890898 C6.27181914 -0.03492235 9.57169876 -0.02220188 12.87231445 -0.00964355 C15.23239576 -0.01506095 17.59247369 -0.02218144 19.95254517 -0.03088379 C26.37393563 -0.04916542 32.79506988 -0.04202953 39.216465 -0.02936745 C43.22417935 -0.02226789 47.23187603 -0.02359303 51.23959351 -0.02732849 C52.23681459 -0.02824789 52.23681459 -0.02824789 53.25418156 -0.02918586 C54.60463979 -0.03046473 55.95509799 -0.03176158 57.30555618 -0.03307623 C69.97579854 -0.04448882 82.64592524 -0.03135773 95.31614864 -0.00987476 C106.19332695 0.00799688 117.07033453 0.00489296 127.94750977 -0.0135498 C140.57167912 -0.03494459 153.19574704 -0.04339012 165.81993198 -0.03110075 C167.16548727 -0.02982652 168.51104258 -0.02856904 169.8565979 -0.02732849 C170.51867727 -0.02671139 171.18075663 -0.02609429 171.86289901 -0.02545848 C176.53383002 -0.02200138 181.20466149 -0.02803631 185.87557983 -0.0372467 C192.15960822 -0.04877159 198.44331306 -0.04084079 204.72730637 -0.01766968 C207.03845049 -0.01236461 209.34962168 -0.01392684 211.66075516 -0.02272034 C214.8062726 -0.03358827 217.95074149 -0.02001786 221.09619141 0 C222.01923411 -0.00892289 222.94227682 -0.01784577 223.89329052 -0.02703905 C230.02487032 0.04908945 230.02487032 0.04908945 232.64665222 2.34827423 C233.93614727 5.43762079 233.49244902 7.33760557 232.5480957 10.50793457 C231.00402719 12.4798453 230.13490896 13.39149889 227.65288925 13.88398206 C226.93266712 13.88446912 226.21244499 13.88495618 225.47039795 13.88545799 C224.63722675 13.89328123 223.80405556 13.90110448 222.94563675 13.90916479 C222.03037594 13.90247262 221.11511513 13.89578046 220.17211914 13.8888855 C219.1997871 13.89356547 218.22745506 13.89824544 217.22565842 13.90306723 C213.95279228 13.91507645 210.68034029 13.90553677 207.4074707 13.89611816 C205.06709548 13.90018123 202.72672218 13.9055216 200.38635254 13.91204834 C194.01871566 13.92575925 187.65122411 13.92040768 181.28358459 13.91091108 C175.30426562 13.90410133 169.32496018 13.90929036 163.34564161 13.91369267 C150.78128892 13.92225203 138.21700183 13.91240388 125.65265989 13.89629157 C114.86647021 13.88288787 104.08037738 13.88521581 93.29418945 13.89904785 C80.77550791 13.91509404 68.2568839 13.92142801 55.73819351 13.91221106 C49.10884993 13.90746298 42.47956039 13.90693363 35.85021973 13.91682053 C29.61877273 13.92546426 23.38750925 13.91951573 17.15608215 13.90213776 C14.86428635 13.89815903 12.57247519 13.89933048 10.28068542 13.90592575 C7.16160334 13.91407659 4.04311605 13.9038979 0.92407227 13.8888855 C0.00881145 13.89557766 -0.90644936 13.90226983 -1.84944534 13.90916479 C-3.09920214 13.89742992 -3.09920214 13.89742992 -4.37420654 13.88545799 C-5.09442867 13.88497094 -5.8146508 13.88448388 -6.55669785 13.88398206 C-9.03871756 13.39149889 -9.90783579 12.4798453 -11.4519043 10.50793457 C-12.39625762 7.33760557 -12.83995586 5.43762079 -11.55046082 2.34827423 C-8.12441994 -0.6562095 -4.40559586 -0.0425881 0 0 Z " fill="#000002" transform="translate(96.451904296875,172.4920654296875)"/>
<path d="M0 0 C1.69452 1.11106968 1.69452 1.11106968 3 3 C3.38031673 5.93483639 3.38031673 5.93483639 3.38768005 9.59788513 C3.39306559 10.27141228 3.39845113 10.94493943 3.40399987 11.6388765 C3.41833213 13.90063036 3.41116311 16.16180328 3.40405273 18.42358398 C3.40975359 20.04313631 3.41671674 21.66268462 3.42485046 23.28222656 C3.44282891 27.68512733 3.44160469 32.08782931 3.43590808 36.4907558 C3.43282288 40.16385912 3.43890123 43.8369239 3.44494683 47.51002175 C3.45900592 56.17411272 3.45741936 64.83810512 3.44604492 73.50219727 C3.43456281 82.4460396 3.44863772 91.38958211 3.4754414 100.33338493 C3.49758001 108.00735128 3.50423992 115.6812234 3.49836498 123.35521942 C3.49498972 127.94070204 3.49744807 132.52599246 3.51461601 137.11144829 C3.53005381 141.42319019 3.52616512 145.73448713 3.50731087 150.04621124 C3.50361612 151.62967657 3.5067592 153.21317464 3.51719666 154.79660988 C3.53034889 156.95663372 3.51891289 159.11517192 3.50120544 161.27513123 C3.50099616 162.48431434 3.50078688 163.69349745 3.50057125 164.93932247 C3 168 3 168 1.19523716 170.4281168 C-1 172 -1 172 -4.625 171.875 C-8 171 -8 171 -10 169 C-10.25447559 166.16980076 -10.25447559 166.16980076 -10.26069641 162.47767639 C-10.26452196 161.80021455 -10.26834751 161.1227527 -10.27228898 160.42476171 C-10.28264714 158.14385509 -10.27862159 155.86319888 -10.2746582 153.58227539 C-10.27900314 151.95139837 -10.28418555 150.3205234 -10.29014587 148.68965149 C-10.30357086 144.25167061 -10.30411066 139.81377472 -10.30158257 135.37577748 C-10.3005152 131.67529912 -10.30539023 127.97483812 -10.310188 124.27436346 C-10.32129533 115.546584 -10.32171374 106.81884757 -10.31567383 98.09106445 C-10.30963214 89.07740674 -10.32194718 80.06390504 -10.3432439 71.05027395 C-10.36083833 63.32030427 -10.36686467 55.59038435 -10.36360615 47.86039537 C-10.36178966 43.23974808 -10.36446575 38.61921207 -10.37832069 33.99858284 C-10.39085938 29.65409794 -10.38899272 25.30985688 -10.37590981 20.9653759 C-10.37353578 19.36858921 -10.37630813 17.77178558 -10.38453293 16.17501831 C-10.39493292 13.99949495 -10.38695525 11.82480008 -10.3742218 9.64930725 C-10.37438954 8.43052918 -10.37455729 7.21175112 -10.37473011 5.95604038 C-10 3 -10 3 -8.69536114 1.1078558 C-5.83091933 -0.76395098 -3.3038266 -0.35398142 0 0 Z " fill="#000002" transform="translate(451,173)"/>
<path d="M0 0 C3.52379766 1.97029546 5.70068885 4.10206655 7 8 C7.11013215 10.3136429 7.15907767 12.63033993 7.17700195 14.9465332 C7.18357315 15.64934418 7.19014435 16.35215515 7.19691467 17.07626343 C7.21661792 19.40110383 7.22830345 21.72587973 7.23828125 24.05078125 C7.24235678 24.84591818 7.2464323 25.64105511 7.25063133 26.46028709 C7.27147919 30.6687532 7.28578656 34.87718681 7.29516602 39.08569336 C7.30622911 43.42689154 7.3406311 47.76757697 7.38033772 52.10859394 C7.40651225 55.45182737 7.41485856 58.79493873 7.41844749 62.13826561 C7.42331115 63.73821667 7.43491894 65.33816236 7.45348549 66.93801308 C7.47789656 69.18084728 7.47690917 71.42235617 7.4699707 73.6652832 C7.47877007 75.57698051 7.47877007 75.57698051 7.48774719 77.52729797 C6.90826296 81.65315684 5.6035983 83.78299552 3 87 C-1.02314866 89.68209911 -4.27219919 89.68843415 -9 89 C-12.49890004 86.88608123 -13.70578686 85.88263941 -15 82 C-15.10530797 79.6197242 -15.14872025 77.23657575 -15.16113281 74.85400391 C-15.16858017 73.76811729 -15.16858017 73.76811729 -15.17617798 72.66029358 C-15.19078153 70.26570688 -15.19759837 67.87118641 -15.203125 65.4765625 C-15.2088777 63.8113098 -15.21463542 62.14605711 -15.22039795 60.48080444 C-15.23090262 56.98882743 -15.23674886 53.4968734 -15.24023438 50.00488281 C-15.24571968 45.53364775 -15.26975059 41.06271711 -15.29820633 36.59157753 C-15.31684303 33.15144974 -15.32203884 29.71139516 -15.32357025 26.27122116 C-15.3265947 24.6230134 -15.33461627 22.97480687 -15.34775543 21.32664871 C-15.36483877 19.01912606 -15.3629305 16.71234565 -15.35644531 14.40478516 C-15.36009094 13.09256989 -15.36373657 11.78035461 -15.36749268 10.42837524 C-14.97641071 6.77993317 -14.17685821 4.91390502 -12 2 C-8.55321078 -0.68083606 -4.17988986 -0.80228212 0 0 Z " fill="#FAA420" transform="translate(211,14)"/>
<path d="M0 0 C2.87029869 1.79393668 4.49131638 2.98263276 6 6 C6.1187051 8.41427058 6.17827516 10.80064385 6.19287109 13.21606445 C6.20104858 13.95934998 6.20922607 14.7026355 6.21765137 15.46844482 C6.24250628 17.93338208 6.25902154 20.39826174 6.2734375 22.86328125 C6.27876118 23.70471365 6.28408485 24.54614605 6.28956985 25.4130764 C6.31630188 29.86676498 6.33567657 34.32042552 6.35009766 38.77416992 C6.36674582 43.37454484 6.41152424 47.9742034 6.4624691 52.57430744 C6.49612406 56.11137211 6.50767311 59.64826636 6.51332474 63.1854763 C6.52004212 64.88117129 6.53527696 66.57685487 6.55921555 68.27239418 C6.59083444 70.64744064 6.59090981 73.0205503 6.58349609 75.39575195 C6.59990143 76.09464035 6.61630676 76.79352875 6.63320923 77.51359558 C6.5838793 81.37930606 6.08913822 82.8923317 3.58853149 85.9127655 C-0.04867483 88.84558766 -2.24148117 89.3358729 -6.9609375 89.29296875 C-10.13134567 88.83745033 -11.8192402 87.24684343 -14 85 C-15.47945006 82.04109987 -15.16462371 79.02919119 -15.17700195 75.78393555 C-15.18357315 75.04065002 -15.19014435 74.2973645 -15.19691467 73.53155518 C-15.216659 71.06660872 -15.22831283 68.60172322 -15.23828125 66.13671875 C-15.24235678 65.29528635 -15.2464323 64.45385395 -15.25063133 63.5869236 C-15.27149707 59.13322825 -15.2857965 54.67956375 -15.29516602 50.22583008 C-15.30623069 45.62556601 -15.34062952 41.02578563 -15.38033772 36.42569256 C-15.40648354 32.88862712 -15.41485603 29.35167727 -15.41844749 25.8145237 C-15.42331886 24.11885118 -15.43494855 22.42318401 -15.45348549 20.72760582 C-15.47783423 18.35276351 -15.47692027 15.97917697 -15.4699707 13.60424805 C-15.48278076 12.90535965 -15.49559082 12.20647125 -15.50878906 11.48640442 C-15.45813091 6.73070946 -14.35549491 4.34205719 -11 1 C-7.54260443 -0.72869779 -3.78024432 -0.48966895 0 0 Z " fill="#FEA620" transform="translate(127,14)"/>
<path d="M0 0 C3.98066095 1.57724302 5.60667274 2.41000911 8 6 C8.26069641 9.17440796 8.26069641 9.17440796 8.2746582 13.14599609 C8.2823246 14.23188271 8.2823246 14.23188271 8.29014587 15.33970642 C8.30405294 17.73436742 8.30308408 20.1287409 8.30078125 22.5234375 C8.30466804 24.18869127 8.30900267 25.85394406 8.31376648 27.51919556 C8.32123142 31.0112021 8.32093579 34.50310756 8.31567383 37.99511719 C8.30988375 42.46638009 8.3267975 46.93722814 8.3500185 51.40842247 C8.36476454 54.84856581 8.36562628 58.2886095 8.36250877 61.72877884 C8.36302171 63.376978 8.36825434 65.02518278 8.37832069 66.67335129 C8.39068268 68.98091149 8.38389508 71.28766714 8.37231445 73.59521484 C8.37294388 74.90743011 8.3735733 76.21964539 8.3742218 77.57162476 C7.88615918 82.04293507 6.33141565 84.56996097 3.3125 87.8125 C-0.08643674 89.55789995 -3.30772809 89.67398614 -7 89 C-10.44312714 86.8755173 -11.71617547 85.85147359 -13 82 C-13.11094806 79.57828391 -13.16758971 77.1845367 -13.17700195 74.76220703 C-13.18357315 74.02852905 -13.19014435 73.29485107 -13.19691467 72.53894043 C-13.21661969 70.11189672 -13.22830286 67.68491476 -13.23828125 65.2578125 C-13.24235678 64.42832973 -13.2464323 63.59884697 -13.25063133 62.74422836 C-13.27147832 58.35536702 -13.28578699 53.96653684 -13.29516602 49.57763672 C-13.30623865 45.04577972 -13.34065197 40.51441262 -13.38033772 35.98272896 C-13.40648205 32.49627774 -13.4148558 29.00994379 -13.41844749 25.52340317 C-13.42331769 23.85284993 -13.43494408 22.18230208 -13.45348549 20.51184464 C-13.4778356 18.17302811 -13.47692032 15.83548652 -13.4699707 13.49658203 C-13.48278076 12.80861542 -13.49559082 12.1206488 -13.50878906 11.41183472 C-13.45768912 6.68722078 -12.32493008 4.32229123 -9 1 C-5.92805092 -0.53597454 -3.39755707 -0.2265038 0 0 Z " fill="#FDA620" transform="translate(294,14)"/>
<path d="M0 0 C16.17 0 32.34 0 49 0 C48.34431961 3.93408233 47.87130357 6.75970854 46.52880859 10.3269043 C46.08231461 11.52557381 46.08231461 11.52557381 45.62680054 12.74845886 C45.30394073 13.59845963 44.98108093 14.44846039 44.6484375 15.32421875 C44.31131744 16.2250972 43.97419739 17.12597565 43.62686157 18.05415344 C42.54800626 20.93387966 41.46172882 23.81073698 40.375 26.6875 C39.66745658 28.5707712 38.96042082 30.45423321 38.25390625 32.33789062 C37.20437038 35.13571168 36.15440279 37.93336205 35.10223389 40.73019409 C31.6900074 49.80368274 28.33829474 58.89909422 25 68 C22.26882544 66.63441272 22.2110434 65.35461437 21.19995117 62.50292969 C20.85586716 61.54392761 20.51178314 60.58492554 20.15727234 59.59686279 C19.78955215 58.54911682 19.42183197 57.50137085 19.04296875 56.421875 C18.6581282 55.34431946 18.27328766 54.26676392 17.87678528 53.15655518 C16.64018996 49.69009206 15.41351255 46.22021855 14.1875 42.75 C12.97267832 39.33007318 11.75580185 35.9108866 10.53787231 32.49206543 C9.75432062 30.29185145 8.97229869 28.09109204 8.19186401 25.88977051 C5.8525504 19.31039937 3.42460871 12.78900737 0.77075195 6.32910156 C0 4 0 4 0 0 Z " fill="#FCE2AD" transform="translate(423,417)"/>
<path d="M0 0 C0.66 0.33 1.32 0.66 2 1 C-0.97 3.97 -3.94 6.94 -7 10 C-7.33 9.34 -7.66 8.68 -8 8 C-7.04578192 6.85073734 -6.08647955 5.70569459 -5.125 4.5625 C-4.59132813 3.92441406 -4.05765625 3.28632812 -3.5078125 2.62890625 C-2 1 -2 1 0 0 Z " fill="#3A2807" transform="translate(109,3)"/>
<path d="M0 0 C0.66 0.33 1.32 0.66 2 1 C-0.64 3.64 -3.28 6.28 -6 9 C-6.66 8.67 -7.32 8.34 -8 8 C-5.33333333 5.33333333 -2.66666667 2.66666667 0 0 Z " fill="#3E2D07" transform="translate(40,59)"/>
</svg>
